# File created by Blade
# Date/Time:  Wed Apr 08 17:12:22 2015
#---------------------------------------------------------
:version 1.10
:name HOM
:units
  mass 1.0
  length 1.000000
  angle deg
:documentation
     Acclaim Skeleton File
:root
   axis xyz
   order TX TY TZ RX RY RZ
   position 0.000000 0.000000 0.000000
   orientation 0 0 0
:bonedata
   begin
      id 1
      name Spine_dum
      direction 0.000000 1.000000 0.000000
      length 5.893853
      axis 0.0 0.0 0.0 xyz
   end
   begin
      id 2
      name LeftUpLeg_dum
      direction 1.000000 0.000000 0.000000
      length 3.697939
      axis 0.0 0.0 0.0 xyz
   end
   begin
      id 3
      name RightUpLeg_dum
      direction -1.000000 0.000000 0.000000
      length 3.697939
      axis 0.0 0.0 0.0 xyz
   end
   begin
      id 4
      name Spine
      direction 0.000000 1.000000 0.000000
      length 0.000000
      axis 0.0 0.0 0.0 xyz
      dof rx ry rz
   end
   begin
      id 5
      name Spine_dum1
      direction 0.000000 1.000000 0.000000
      length 16.447146
      axis 0.0 0.0 0.0 xyz
   end
   begin
      id 6
      name Spine_dum2
      direction 0.000000 1.000000 0.000000
      length 10.900383
      axis 0.0 0.0 0.0 xyz
   end
   begin
      id 7
      name Spine_dum3
      direction 0.000000 1.000000 0.000000
      length 10.900383
      axis 0.0 0.0 0.0 xyz
   end
   begin
      id 8
      name Head
      direction 0.000000 1.000000 0.000000
      length 4.527550
      axis 0.0 0.0 0.0 xyz
      dof rx ry rz
   end
   begin
      id 9
      name LeftShoulder
      direction 1.000000 0.000000 0.000000
      length 8.219464
      axis 0.0 0.0 -90.0 xyz
      dof rx ry rz
   end
   begin
      id 10
      name LeftArm
      direction 1.000000 0.000000 0.000000
      length 11.094937
      axis 0.0 0.0 -90.0 xyz
      dof rx ry rz
   end
   begin
      id 11
      name LeftForeArm
      direction 1.000000 0.000000 0.000000
      length 9.103875
      axis 0.0 0.0 -90.0 xyz
      dof ry rz rx
   end
   begin
      id 12
      name LeftHand
      direction 0.000000 0.000000 0.000000
      length 0.000000
      axis 0.0 0.0 -90.0 xyz
      dof rx ry rz
   end
   begin
      id 13
      name LeftHand_dum1
      direction 0.000000 0.000000 0.000000
      length 0.000000
      axis 0.0 0.0 -90.0 xyz
   end
   begin
      id 14
      name LeftHand_dum2
      direction 1.000000 0.000000 0.000000
      length 3.937000
      axis 0.0 0.0 -90.0 xyz
   end
   begin
      id 15
      name LeftHandThumb1
      direction 0.000000 0.000000 1.000000
      length 3.937000
      axis 0.0 0.0 -90.0 xyz
      dof rx rz ry
   end
   begin
      id 16
      name RightShoulder
      direction -1.000000 0.000000 0.000000
      length 8.219464
      axis 0.0 0.0 90.0 xyz
      dof rx ry rz
   end
   begin
      id 17
      name RightArm
      direction -1.000000 0.000000 0.000000
      length 11.094937
      axis 0.0 0.0 90.0 xyz
      dof rx ry rz
   end
   begin
      id 18
      name RightForeArm
      direction -1.000000 0.000000 0.000000
      length 9.103875
      axis 0.0 0.0 90.0 xyz
      dof ry rz rx
   end
   begin
      id 19
      name RightHand
      direction 0.000000 0.000000 0.000000
      length 0.000000
      axis 0.0 0.0 90.0 xyz
      dof rx ry rz
   end
   begin
      id 20
      name RightHand_dum1
      direction 0.000000 0.000000 0.000000
      length 0.000000
      axis 0.0 0.0 90.0 xyz
   end
   begin
      id 21
      name RightHand_dum2
      direction -1.000000 0.000000 0.000000
      length 3.937000
      axis 0.0 0.0 90.0 xyz
   end
   begin
      id 22
      name RightHandThumb1
      direction 0.000000 0.000000 1.000000
      length 3.937000
      axis 0.0 0.0 90.0 xyz
      dof rx rz ry
   end
   begin
      id 23
      name LeftUpLeg
      direction 0.000000 -1.000000 0.000000
      length 16.181467
      axis 0.0 0.0 0.0 xyz
      dof rx ry rz
   end
   begin
      id 24
      name LeftLeg
      direction 0.000000 -1.000000 0.000000
      length 16.501392
      axis 0.0 0.0 0.0 xyz
      dof rx ry rz
   end
   begin
      id 25
      name LeftFoot
      direction 0.000000 -0.258819 0.965926
      length 6.408245
      axis 15.0 0.0 0.0 xyz
      dof rx ry rz
   end
   begin
      id 26
      name LeftToeBase
      direction 0.000000 0.000000 1.000000
      length 2.952750
      axis 0.0 0.0 0.0 xyz
      dof rx ry rz
   end
   begin
      id 27
      name RightUpLeg
      direction 0.000000 -1.000000 0.000000
      length 16.181467
      axis 0.0 0.0 0.0 xyz
      dof rx ry rz
   end
   begin
      id 28
      name RightLeg
      direction 0.000000 -1.000000 0.000000
      length 16.501392
      axis 0.0 0.0 0.0 xyz
      dof rx ry rz
   end
   begin
      id 29
      name RightFoot
      direction 0.000000 -0.258819 0.965926
      length 6.408245
      axis 15.0 0.0 0.0 xyz
      dof rx ry rz
   end
   begin
      id 30
      name RightToeBase
      direction 0.000000 0.000000 1.000000
      length 2.952750
      axis 0.0 0.0 0.0 xyz
      dof rx ry rz
   end
:hierarchy
   begin
      root Spine_dum LeftUpLeg_dum RightUpLeg_dum
      Spine_dum Spine
      LeftUpLeg_dum LeftUpLeg
      RightUpLeg_dum RightUpLeg
      Spine Spine_dum1 Spine_dum2 Spine_dum3
      Spine_dum1 Head
      Spine_dum2 LeftShoulder
      Spine_dum3 RightShoulder
      LeftShoulder LeftArm
      LeftArm LeftForeArm
      LeftForeArm LeftHand
      LeftHand LeftHand_dum1 LeftHand_dum2
      LeftHand_dum1 LeftHandThumb1
      RightShoulder RightArm
      RightArm RightForeArm
      RightForeArm RightHand
      RightHand RightHand_dum1 RightHand_dum2
      RightHand_dum1 RightHandThumb1
      LeftUpLeg LeftLeg
      LeftLeg LeftFoot
      LeftFoot LeftToeBase
      RightUpLeg RightLeg
      RightLeg RightFoot
      RightFoot RightToeBase
   end

# File created by Blade
# Date/Time:  Wed Apr 08 17:12:12 2015
# Frame Rate: 120.000 fps
#------------------------------------------------------
:FULLY-SPECIFIED
:DEGREES
658
root 2.441423 36.849660 6.337466 -9.126950 -54.517031 -23.649261
Spine 37.685806 0.444359 5.955964
Head -1.400909 12.652936 11.859159
LeftShoulder -5.418323 15.079833 16.521779
LeftArm 26.296240 26.639020 -72.784542
LeftForeArm 23.630740 0.000000 37.812541
LeftHand -13.053784 -0.000000 -8.748310
LeftHandThumb1 -26.253704 0.000000 33.147579
RightShoulder -27.363202 -48.219273 15.923225
RightArm 58.830796 -18.746281 53.242308
RightForeArm 10.007683 -0.000000 19.215658
RightHand -1.190600 -0.000000 11.749331
RightHandThumb1 -24.326973 -0.000000 -32.862282
LeftUpLeg 33.891269 27.213682 25.888889
LeftLeg 11.803233 -0.000000 -0.000000
LeftFoot -17.008476 9.650564 -11.935166
LeftToeBase 1.623982 -0.000000 -0.000000
RightUpLeg -71.521503 -9.333960 13.038381
RightLeg 134.675805 -0.000000 -0.000000
RightFoot 15.523587 -4.095504 13.339616
RightToeBase -12.042899 -0.000000 0.000000
659
root 2.460895 36.861371 6.357959 -8.664504 -55.239858 -24.060545
Spine 37.787968 0.412774 5.937102
Head -1.492585 12.936857 11.677175
LeftShoulder -5.495783 15.158795 16.461756
LeftArm 26.366817 26.699069 -72.683274
LeftForeArm 23.478554 0.000000 37.798476
LeftHand -13.027399 0.000000 -8.416114
LeftHandThumb1 -26.253704 0.000000 33.147579
RightShoulder -27.332507 -48.208633 15.870570
RightArm 58.954915 -18.863652 53.004753
RightForeArm 10.193706 0.000000 19.290522
RightHand -1.328350 0.000000 11.684021
RightHandThumb1 -24.326973 -0.000000 -32.862282
LeftUpLeg 33.893015 26.919039 25.719389
LeftLeg 11.869107 -0.000000 -0.000000
LeftFoot -16.813398 9.768444 -12.021106
LeftToeBase 0.694125 -0.000000 -0.000000
RightUpLeg -71.375709 -9.404851 13.022540
RightLeg 134.651151 -0.000000 -0.000000
RightFoot 15.529461 -4.130649 13.288769
RightToeBase -12.083831 -0.000000 0.000000
660
root 2.484839 36.874303 6.378417 -8.152658 -55.969186 -24.494855
Spine 37.863115 0.383813 5.935394
Head -1.584475 13.239087 11.464062
LeftShoulder -5.574173 15.217620 16.394372
LeftArm 26.349908 26.630414 -72.748889
LeftForeArm 23.298710 -0.000000 37.692371
LeftHand -12.980646 -0.000000 -8.193393
LeftHandThumb1 -26.253704 0.000000 33.147579
RightShoulder -27.084945 -48.188927 15.584163
RightArm 58.805614 -18.789039 53.491691
RightForeArm 9.742946 -0.000000 19.215999
RightHand -1.200061 0.000000 11.807490
RightHandThumb1 -24.326973 -0.000000 -32.862282
LeftUpLeg 33.836127 26.521006 25.470866
LeftLeg 11.956144 -0.000000 -0.000000
LeftFoot -16.673536 9.785980 -12.209476
LeftToeBase -0.108762 -0.000000 0.000000
RightUpLeg -71.250721 -9.469085 13.037464
RightLeg 134.616060 -0.000000 -0.000000
RightFoot 15.438717 -4.238447 13.233060
RightToeBase -11.840783 -0.000000 0.000000
661
root 2.504738 36.889251 6.407171 -7.764296 -56.767049 -24.863613
Spine 38.013065 0.459194 5.944983
Head -1.648960 13.500381 11.206233
LeftShoulder -5.592177 15.176540 16.297084
LeftArm 26.166422 26.490876 -72.878483
LeftForeArm 23.331112 -0.000000 37.604392
LeftHand -12.901338 -0.000000 -8.162483
LeftHandThumb1 -26.253704 0.000000 33.147579
RightShoulder -27.006282 -48.218430 15.435456
RightArm 58.839783 -18.806321 53.599017
RightForeArm 9.539756 -0.000000 19.189001
RightHand -1.211819 -0.000000 11.823144
RightHandThumb1 -24.326973 -0.000000 -32.862282
LeftUpLeg 33.928000 26.101116 25.216012
LeftLeg 12.001035 -0.000000 -0.000000
LeftFoot -16.481564 9.740390 -12.375175
LeftToeBase -0.812265 -0.000000 0.000000
RightUpLeg -71.040979 -9.528658 12.949807
RightLeg 134.590505 -0.000000 -0.000000
RightFoot 15.426846 -4.293825 13.263553
RightToeBase -11.832060 -0.000000 0.000000
662
root 2.525768 36.907711 6.440455 -7.497750 -57.595172 -25.150642
Spine 38.210591 0.592708 5.908045
Head -1.674334 13.750959 10.972612
LeftShoulder -5.664772 15.278550 16.219310
LeftArm 26.223159 26.374263 -72.962866
LeftForeArm 23.166004 -0.000000 37.336358
LeftHand -12.878352 -0.000000 -8.048762
LeftHandThumb1 -26.253704 0.000000 33.147579
RightShoulder -26.856148 -48.209352 15.226254
RightArm 58.818428 -18.871026 53.674114
RightForeArm 9.436029 0.000000 19.181062
RightHand -1.244032 -0.000000 11.864351
RightHandThumb1 -24.326973 -0.000000 -32.862282
LeftUpLeg 34.096311 25.613968 24.881658
LeftLeg 11.995658 -0.000000 -0.000000
LeftFoot -16.162433 9.771531 -12.476676
LeftToeBase -1.623793 -0.000000 0.000000
RightUpLeg -70.765361 -9.564101 12.807192
RightLeg 134.565831 -0.000000 -0.000000
RightFoot 15.394859 -4.310394 13.231877
RightToeBase -11.810792 -0.000000 0.000000
663
root 2.550044 36.926817 6.477681 -7.265454 -58.434842 -25.359373
Spine 38.371175 0.769455 5.830339
Head -1.678332 13.988770 10.768041
LeftShoulder -5.598283 15.240556 16.191537
LeftArm 26.007867 26.072851 -73.237412
LeftForeArm 23.117405 -0.000000 37.017163
LeftHand -12.679524 -0.000000 -8.410303
LeftHandThumb1 -26.253704 0.000000 33.147579
RightShoulder -26.796701 -48.223327 15.109927
RightArm 58.924334 -19.013566 53.455062
RightForeArm 9.550060 -0.000000 19.173824
RightHand -1.233430 -0.000000 11.758049
RightHandThumb1 -24.326973 -0.000000 -32.862282
LeftUpLeg 34.219352 25.017238 24.361095
LeftLeg 11.895474 -0.000000 -0.000000
LeftFoot -15.807925 9.883393 -12.650423
LeftToeBase -2.564712 -0.000000 0.000000
RightUpLeg -70.537459 -9.645891 12.612567
RightLeg 134.535736 -0.000000 -0.000000
RightFoot 15.409528 -4.299101 13.102707
RightToeBase -11.711724 -0.000000 0.000000
664
root 2.573186 36.945232 6.509469 -6.912039 -59.301065 -25.599297
Spine 38.421196 1.007617 5.767972
Head -1.669931 14.184092 10.573123
LeftShoulder -5.561126 15.224908 16.139460
LeftArm 25.736681 25.785002 -73.515497
LeftForeArm 23.065240 0.000000 36.750716
LeftHand -12.597587 -0.000000 -8.571631
LeftHandThumb1 -26.253704 0.000000 33.147579
RightShoulder -26.746236 -48.252258 15.010175
RightArm 59.024002 -19.164632 53.235818
RightForeArm 9.606830 -0.000000 19.155909
RightHand -1.249616 -0.000000 11.702238
RightHandThumb1 -24.326973 -0.000000 -32.862282
LeftUpLeg 34.279697 24.563533 23.933371
LeftLeg 11.853126 -0.000000 -0.000000
LeftFoot -15.408596 9.730131 -12.674437
LeftToeBase -3.432112 -0.000000 0.000000
RightUpLeg -70.412340 -9.638221 12.477408
RightLeg 134.500001 -0.000000 -0.000000
RightFoot 15.411946 -4.263515 12.973960
RightToeBase -11.713493 -0.000000 0.000000
665
root 2.603807 36.957494 6.531074 -6.314882 -60.125798 -25.781113
Spine 38.125586 1.293367 5.662070
Head -1.611991 14.380484 10.427094
LeftShoulder -5.559803 15.273539 16.023766
LeftArm 25.478852 25.548478 -73.698496
LeftForeArm 23.103696 0.000000 36.530540
LeftHand -12.607708 0.000000 -8.676517
LeftHandThumb1 -26.253704 0.000000 33.147579
RightShoulder -26.756935 -48.288871 15.031357
RightArm 59.056142 -19.263571 53.062606
RightForeArm 9.515665 0.000000 19.138830
RightHand -1.273185 -0.000000 11.757557
RightHandThumb1 -24.326973 -0.000000 -32.862282
LeftUpLeg 33.934307 24.167600 23.310772
LeftLeg 11.932675 -0.000000 -0.000000
LeftFoot -15.069772 9.517272 -12.750938
LeftToeBase -4.159623 -0.000000 0.000000
RightUpLeg -70.612105 -9.546354 12.331580
RightLeg 134.465947 -0.000000 -0.000000
RightFoot 15.446858 -4.155819 13.079470
RightToeBase -11.783371 -0.000000 0.000000
666
root 2.638927 36.972492 6.551790 -5.710702 -60.931249 -25.966963
Spine 37.856441 1.553495 5.557274
Head -1.625816 14.583122 10.210124
LeftShoulder -5.625591 15.356016 15.846703
LeftArm 25.277118 25.346968 -73.810016
LeftForeArm 23.094869 0.000000 36.322452
LeftHand -12.714793 -0.000000 -8.543509
LeftHandThumb1 -26.253704 0.000000 33.147579
RightShoulder -26.780493 -48.274649 15.039202
RightArm 59.148306 -19.416825 52.758946
RightForeArm 9.552680 -0.000000 19.085315
RightHand -1.363525 -0.000000 11.486290
RightHandThumb1 -24.326973 -0.000000 -32.862282
LeftUpLeg 33.551786 23.720522 22.654158
LeftLeg 12.017212 -0.000000 -0.000000
LeftFoot -14.721742 9.310623 -12.673489
LeftToeBase -4.753519 -0.000000 0.000000
RightUpLeg -70.830949 -9.504099 12.224189
RightLeg 134.419006 -0.000000 -0.000000
RightFoot 15.451240 -4.090695 12.995917
RightToeBase -11.766798 -0.000000 0.000000
667
root 2.664554 36.995411 6.573604 -5.160421 -61.735533 -26.321804
Spine 37.787984 1.772564 5.545606
Head -1.577341 14.795992 9.962594
LeftShoulder -5.743788 15.464933 15.673560
LeftArm 25.179790 25.230277 -73.870152
LeftForeArm 23.055915 -0.000000 36.015724
LeftHand -12.738107 -0.000000 -8.486077
LeftHandThumb1 -26.253704 0.000000 33.147579
RightShoulder -26.684030 -48.286084 14.870072
RightArm 59.204912 -19.615285 52.555479
RightForeArm 9.411144 -0.000000 19.069533
RightHand -1.254225 0.000000 11.693670
RightHandThumb1 -24.326973 -0.000000 -32.862282
LeftUpLeg 33.433590 23.104315 22.141709
LeftLeg 11.965096 -0.000000 -0.000000
LeftFoot -14.286230 9.045803 -12.702785
LeftToeBase -5.511996 -0.000000 0.000000
RightUpLeg -70.805121 -9.528551 12.201982
RightLeg 134.356492 -0.000000 -0.000000
RightFoot 15.393369 -4.094942 12.925319
RightToeBase -11.815231 -0.000000 0.000000
